<svg width="174" height="44" viewBox="0 0 174 44" fill="none" xmlns="http://www.w3.org/2000/svg">
<path d="M138.9 40.7647V15.5294H160.35V40.7647H138.9Z" fill="white"/>
<path d="M140.85 11.6471L144.1 5.82353H164.25L160.35 11.6471H140.85Z" fill="#4B75A9"/>
<path d="M171.4 14.2353V40.7647H163.6V14.2353H171.4Z" fill="#4B75A9"/>
<path fill-rule="evenodd" clip-rule="evenodd" d="M135 44H174V12.9412L167.5 2.58824V0H140.85V2.58824L135 12.9412V44ZM160.35 15.5294H138.9V40.7647H160.35V15.5294ZM164.25 5.82353L160.35 11.6471H140.85L144.1 5.82353H164.25ZM164.136 15.4826C164.162 15.3058 164.327 15.1835 164.505 15.2093L169.749 15.9719C169.927 15.9977 170.05 16.162 170.024 16.3388C169.998 16.5156 169.833 16.638 169.655 16.6122L164.411 15.8495C164.233 15.8237 164.11 15.6595 164.136 15.4826ZM164.051 17.1281C164.08 16.9518 164.247 16.8327 164.425 16.8621L168.858 17.5976C169.035 17.6269 169.155 17.7936 169.125 17.9699C169.096 18.1461 168.928 18.2652 168.751 18.2358L164.318 17.5004C164.141 17.471 164.021 17.3043 164.051 17.1281ZM163.929 18.9132C163.956 18.7366 164.121 18.6151 164.299 18.6419L169.751 19.4652C169.928 19.492 170.05 19.6569 170.024 19.8336C169.997 20.0103 169.831 20.1318 169.653 20.105L164.201 19.2816C164.024 19.2548 163.902 19.0899 163.929 18.9132ZM167.722 23.0052C167.901 23.0052 168.047 23.15 168.047 23.3287V27.997L168.071 27.9956L168.084 27.9949C168.43 27.7301 168.803 27.5016 169.154 27.293C169.35 27.1763 169.54 27.0492 169.735 26.9163L169.823 26.8568C169.989 26.7435 170.16 26.6267 170.336 26.5155C170.487 26.4195 170.688 26.464 170.785 26.6147C170.881 26.7655 170.836 26.9654 170.685 27.0614C170.519 27.1663 170.358 27.2762 170.191 27.3897L170.102 27.4506C169.905 27.5842 169.701 27.7209 169.487 27.8483C169.035 28.1177 168.591 28.3935 168.22 28.7204C168.086 28.8388 167.88 28.8262 167.761 28.6924C167.74 28.6687 167.723 28.6428 167.711 28.6156C167.664 28.5998 167.615 28.5759 167.569 28.5397C167.448 28.4446 167.397 28.3072 167.397 28.1719V23.3287C167.397 23.15 167.542 23.0052 167.722 23.0052ZM165.821 23.2521C165.909 23.0959 166.106 23.0396 166.263 23.1264C166.453 23.2314 166.516 23.4346 166.542 23.5475C166.572 23.682 166.58 23.8329 166.579 23.9677C166.579 24.2407 166.542 24.5165 166.528 24.6159C166.467 25.0537 166.386 25.4737 166.293 25.9006C166.068 26.9297 165.42 27.8472 164.772 28.5724C164.653 28.7059 164.448 28.7179 164.313 28.5992C164.179 28.4805 164.167 28.276 164.286 28.1425C164.908 27.4465 165.468 26.63 165.658 25.7632C165.749 25.3459 165.827 24.943 165.885 24.5269C165.898 24.4329 165.929 24.1928 165.929 23.9656C165.93 23.8504 165.922 23.7551 165.907 23.6897C165.905 23.6767 165.902 23.6668 165.899 23.6594C165.78 23.5622 165.744 23.391 165.821 23.2521ZM166.712 31.0913C166.891 31.0913 167.037 31.2361 167.037 31.4148L167.037 31.4545C167.037 31.8262 167.037 32.2452 166.944 32.6603H169.5C169.659 32.6603 169.791 32.7736 169.819 32.9234C169.941 32.9702 170.027 33.0877 170.027 33.2252C170.027 34.101 169.578 34.8649 169.196 35.5136L169.194 35.5161C169.164 35.5687 169.133 35.6206 169.103 35.6717C168.599 36.536 167.969 37.3202 167.234 37.9993C167.198 38.0322 167.161 38.0669 167.124 38.1027C166.873 38.3402 166.568 38.6291 166.168 38.762C165.998 38.8185 165.814 38.7268 165.757 38.5573C165.7 38.3878 165.792 38.2046 165.962 38.1481C166.215 38.0642 166.405 37.8865 166.666 37.6424L166.709 37.6019C166.736 37.5769 166.763 37.5513 166.791 37.525C167.48 36.8893 168.07 36.1554 168.541 35.347L168.616 35.2182C169.001 34.5608 169.349 33.9668 169.376 33.3073H166.71C166.363 34.002 165.827 34.4336 165.246 34.8546C165.101 34.9597 164.897 34.9278 164.792 34.7833C164.686 34.6388 164.718 34.4364 164.864 34.3313C165.498 33.8719 165.957 33.4795 166.221 32.8118C166.385 32.3958 166.387 31.9369 166.387 31.4148C166.387 31.2361 166.532 31.0913 166.712 31.0913ZM144.1 25.2353C144.1 26.3074 143.227 27.1765 142.15 27.1765C141.073 27.1765 140.2 26.3074 140.2 25.2353C140.2 24.1632 141.073 23.2941 142.15 23.2941C143.227 23.2941 144.1 24.1632 144.1 25.2353ZM157.1 25.2353C157.1 26.3074 156.227 27.1765 155.15 27.1765C154.073 27.1765 153.2 26.3074 153.2 25.2353C153.2 24.1632 154.073 23.2941 155.15 23.2941C156.227 23.2941 157.1 24.1632 157.1 25.2353ZM148.45 33C145.938 33 143.852 31.321 143.45 29.1176H153.45C153.048 31.321 150.962 33 148.45 33Z" fill="black"/>
<path d="M3.444 43.5V14.352H6.216L18.564 34.638H16.674L29.022 14.352H31.794V43.5H27.846V21.282L28.77 21.534L19.026 37.536H16.254L6.51 21.534L7.392 21.282V43.5H3.444ZM38.0464 43.5V23.55H41.8264V43.5H38.0464ZM39.9364 19.56C39.2364 19.56 38.6624 19.336 38.2144 18.888C37.7664 18.412 37.5424 17.824 37.5424 17.124C37.5424 16.452 37.7664 15.892 38.2144 15.444C38.6624 14.968 39.2364 14.73 39.9364 14.73C40.6364 14.73 41.2104 14.968 41.6584 15.444C42.1064 15.892 42.3304 16.452 42.3304 17.124C42.3304 17.824 42.1064 18.412 41.6584 18.888C41.2104 19.336 40.6364 19.56 39.9364 19.56ZM47.397 43.5V23.55H51.177V43.5H47.397ZM51.177 32.118L49.749 31.488C49.749 28.94 50.337 26.91 51.513 25.398C52.689 23.886 54.383 23.13 56.595 23.13C57.603 23.13 58.513 23.312 59.325 23.676C60.137 24.012 60.893 24.586 61.593 25.398L59.115 27.96C58.695 27.512 58.233 27.19 57.729 26.994C57.225 26.798 56.637 26.7 55.965 26.7C54.565 26.7 53.417 27.148 52.521 28.044C51.625 28.94 51.177 30.298 51.177 32.118ZM72.2764 43.92C70.6524 43.92 69.1824 43.556 67.8664 42.828C66.5784 42.072 65.5704 41.036 64.8424 39.72C64.1144 38.404 63.7504 36.878 63.7504 35.142V23.55H67.5304V34.974C67.5304 36.066 67.7124 37.018 68.0764 37.83C68.4684 38.614 69.0284 39.216 69.7564 39.636C70.4844 40.056 71.3384 40.266 72.3184 40.266C73.8024 40.266 74.9644 39.804 75.8044 38.88C76.6444 37.928 77.0644 36.626 77.0644 34.974V23.55H80.8444V35.142C80.8444 36.878 80.4804 38.404 79.7524 39.72C79.0244 41.036 78.0164 42.072 76.7284 42.828C75.4684 43.556 73.9844 43.92 72.2764 43.92ZM98.6787 43.5L89.3547 33.294L98.5947 23.55H103.173L92.8827 34.302L93.0507 32.118L103.551 43.5H98.6787ZM85.9107 43.5V13.512H89.6907V43.5H85.9107ZM114.112 43.92C112.488 43.92 111.018 43.556 109.702 42.828C108.414 42.072 107.406 41.036 106.678 39.72C105.95 38.404 105.586 36.878 105.586 35.142V23.55H109.366V34.974C109.366 36.066 109.548 37.018 109.912 37.83C110.304 38.614 110.864 39.216 111.592 39.636C112.32 40.056 113.174 40.266 114.154 40.266C115.638 40.266 116.8 39.804 117.64 38.88C118.48 37.928 118.9 36.626 118.9 34.974V23.55H122.68V35.142C122.68 36.878 122.316 38.404 121.588 39.72C120.86 41.036 119.852 42.072 118.564 42.828C117.304 43.556 115.82 43.92 114.112 43.92Z" fill="black"/>
</svg>
