<svg width="170" height="49" viewBox="0 0 170 49" fill="none" xmlns="http://www.w3.org/2000/svg">
<path d="M3.198 39V11.934H5.772L17.238 30.771H15.483L26.949 11.934H29.523V39H25.857V18.369L26.715 18.603L17.667 33.462H15.093L6.045 18.603L6.864 18.369V39H3.198ZM35.3288 39V20.475H38.8388V39H35.3288ZM37.0838 16.77C36.4338 16.77 35.9008 16.562 35.4848 16.146C35.0688 15.704 34.8608 15.158 34.8608 14.508C34.8608 13.884 35.0688 13.364 35.4848 12.948C35.9008 12.506 36.4338 12.285 37.0838 12.285C37.7338 12.285 38.2668 12.506 38.6828 12.948C39.0988 13.364 39.3068 13.884 39.3068 14.508C39.3068 15.158 39.0988 15.704 38.6828 16.146C38.2668 16.562 37.7338 16.77 37.0838 16.77ZM44.0115 39V20.475H47.5215V39H44.0115ZM47.5215 28.431L46.1955 27.846C46.1955 25.48 46.7415 23.595 47.8335 22.191C48.9255 20.787 50.4985 20.085 52.5525 20.085C53.4885 20.085 54.3335 20.254 55.0875 20.592C55.8415 20.904 56.5435 21.437 57.1935 22.191L54.8925 24.57C54.5025 24.154 54.0735 23.855 53.6055 23.673C53.1375 23.491 52.5915 23.4 51.9675 23.4C50.6675 23.4 49.6015 23.816 48.7695 24.648C47.9375 25.48 47.5215 26.741 47.5215 28.431ZM67.1138 39.39C65.6058 39.39 64.2408 39.052 63.0188 38.376C61.8228 37.674 60.8868 36.712 60.2108 35.49C59.5348 34.268 59.1968 32.851 59.1968 31.239V20.475H62.7068V31.083C62.7068 32.097 62.8758 32.981 63.2138 33.735C63.5778 34.463 64.0978 35.022 64.7738 35.412C65.4498 35.802 66.2428 35.997 67.1528 35.997C68.5308 35.997 69.6098 35.568 70.3898 34.71C71.1698 33.826 71.5598 32.617 71.5598 31.083V20.475H75.0698V31.239C75.0698 32.851 74.7318 34.268 74.0558 35.49C73.3798 36.712 72.4438 37.674 71.2478 38.376C70.0778 39.052 68.6998 39.39 67.1138 39.39ZM91.6302 39L82.9722 29.523L91.5522 20.475H95.8032L86.2482 30.459L86.4042 28.431L96.1542 39H91.6302ZM79.7742 39V11.154H83.2842V39H79.7742ZM105.961 39.39C104.453 39.39 103.088 39.052 101.866 38.376C100.67 37.674 99.7345 36.712 99.0585 35.49C98.3825 34.268 98.0445 32.851 98.0445 31.239V20.475H101.554V31.083C101.554 32.097 101.723 32.981 102.061 33.735C102.425 34.463 102.945 35.022 103.621 35.412C104.297 35.802 105.09 35.997 106 35.997C107.378 35.997 108.457 35.568 109.237 34.71C110.017 33.826 110.407 32.617 110.407 31.083V20.475H113.917V31.239C113.917 32.851 113.579 34.268 112.903 35.49C112.227 36.712 111.291 37.674 110.095 38.376C108.925 39.052 107.547 39.39 105.961 39.39Z" fill="white"/>
<path d="M131.3 45.3971V17.2941H154.95V45.3971H131.3Z" fill="white"/>
<path d="M133.45 12.9706L137.033 6.48529H159.25L154.95 12.9706H133.45Z" fill="white"/>
<path d="M167.133 15.8529V45.3971H158.533V15.8529H167.133Z" fill="white"/>
<path fill-rule="evenodd" clip-rule="evenodd" d="M127 49H170V14.4118L162.833 2.88235V0H133.45V2.88235L127 14.4118V49ZM154.95 17.2941H131.3V45.3971H154.95V17.2941ZM159.25 6.48529L154.95 12.9706H133.45L137.033 6.48529H159.25ZM159.124 17.242C159.153 17.0451 159.335 16.9088 159.531 16.9376L165.313 17.7869C165.509 17.8157 165.645 17.9986 165.616 18.1955C165.587 18.3924 165.405 18.5287 165.21 18.4999L159.427 17.6506C159.231 17.6219 159.096 17.4389 159.124 17.242ZM159.03 19.0744C159.063 18.8781 159.247 18.7455 159.442 18.7783L164.331 19.5973C164.526 19.63 164.658 19.8156 164.625 20.0119C164.593 20.2082 164.408 20.3408 164.213 20.3081L159.325 19.489C159.129 19.4563 158.998 19.2707 159.03 19.0744ZM158.896 21.0625C158.925 20.8657 159.108 20.7305 159.304 20.7603L165.315 21.6772C165.511 21.707 165.645 21.8907 165.616 22.0874C165.586 22.2842 165.403 22.4194 165.208 22.3896L159.196 21.4727C159.001 21.4429 158.866 21.2592 158.896 21.0625ZM163.078 25.6194C163.276 25.6194 163.436 25.7807 163.436 25.9797V31.1785L163.463 31.1769L163.477 31.1761C163.859 30.8813 164.27 30.6267 164.657 30.3945C164.873 30.2646 165.082 30.1229 165.298 29.9749L165.394 29.9087C165.577 29.7826 165.766 29.6525 165.96 29.5286C166.127 29.4218 166.349 29.4712 166.455 29.6391C166.561 29.807 166.512 30.0297 166.345 30.1365C166.162 30.2534 165.984 30.3758 165.801 30.5021L165.702 30.57C165.485 30.7188 165.26 30.871 165.024 31.0129C164.526 31.3128 164.037 31.62 163.627 31.9841C163.479 32.1159 163.253 32.102 163.122 31.9529C163.098 31.9265 163.08 31.8977 163.066 31.8674C163.015 31.8498 162.96 31.8232 162.909 31.7828C162.776 31.6769 162.72 31.5239 162.72 31.3732V25.9797C162.72 25.7807 162.88 25.6194 163.078 25.6194ZM160.983 25.8943C161.079 25.7204 161.297 25.6577 161.47 25.7544C161.679 25.8713 161.748 26.0976 161.777 26.2233C161.81 26.3731 161.819 26.5411 161.818 26.6913C161.817 26.9953 161.777 27.3025 161.762 27.4131C161.695 27.9007 161.605 28.3684 161.502 28.8439C161.255 29.9899 160.54 31.0116 159.826 31.8192C159.694 31.9679 159.468 31.9813 159.32 31.8491C159.172 31.7169 159.159 31.4892 159.29 31.3405C159.975 30.5654 160.593 29.6562 160.802 28.6908C160.903 28.2261 160.988 27.7775 161.052 27.314C161.067 27.2094 161.101 26.942 161.102 26.6889C161.102 26.5606 161.094 26.4546 161.077 26.3817C161.074 26.3673 161.071 26.3562 161.069 26.348C160.937 26.2397 160.897 26.0491 160.983 25.8943ZM161.964 34.6244C162.162 34.6244 162.322 34.7857 162.322 34.9847L162.322 35.0289C162.323 35.4428 162.323 35.9094 162.22 36.3717H165.039C165.214 36.3717 165.359 36.4978 165.391 36.6646C165.525 36.7168 165.62 36.8476 165.62 37.0008C165.62 37.9761 165.124 38.8269 164.703 39.5493L164.702 39.552C164.667 39.6106 164.634 39.6684 164.601 39.7253C164.046 40.6878 163.35 41.5611 162.54 42.3175C162.5 42.354 162.46 42.3926 162.418 42.4326C162.142 42.697 161.806 43.0188 161.365 43.1667C161.177 43.2296 160.974 43.1276 160.911 42.9389C160.849 42.7501 160.95 42.546 161.138 42.4831C161.417 42.3897 161.626 42.1918 161.913 41.9199L161.961 41.8749C161.99 41.847 162.021 41.8185 162.052 41.7892C162.811 41.0813 163.462 40.264 163.981 39.3637L164.064 39.2203C164.488 38.4881 164.871 37.8266 164.901 37.0923H161.962C161.58 37.8659 160.989 38.3466 160.348 38.8154C160.188 38.9324 159.964 38.8968 159.847 38.7359C159.731 38.575 159.766 38.3496 159.927 38.2326C160.626 37.721 161.132 37.284 161.423 36.5404C161.604 36.0772 161.606 35.5661 161.606 34.9847C161.606 34.7857 161.766 34.6244 161.964 34.6244ZM137.033 28.1029C137.033 29.2969 136.071 30.2647 134.883 30.2647C133.696 30.2647 132.733 29.2969 132.733 28.1029C132.733 26.909 133.696 25.9412 134.883 25.9412C136.071 25.9412 137.033 26.909 137.033 28.1029ZM151.367 28.1029C151.367 29.2969 150.404 30.2647 149.217 30.2647C148.029 30.2647 147.067 29.2969 147.067 28.1029C147.067 26.909 148.029 25.9412 149.217 25.9412C150.404 25.9412 151.367 26.909 151.367 28.1029ZM141.829 36.75C139.06 36.75 136.76 34.8803 136.317 32.4265H147.342C146.899 34.8803 144.599 36.75 141.829 36.75Z" fill="black"/>
</svg>
