<svg width="18" height="18" viewBox="0 0 18 18" fill="none" xmlns="http://www.w3.org/2000/svg">
<path d="M9 4.05C9.24853 4.05 9.45 4.25147 9.45 4.5V8.55H13.5C13.7485 8.55 13.95 8.75147 13.95 9C13.95 9.24853 13.7485 9.45 13.5 9.45H9.45V13.5C9.45 13.7485 9.24853 13.95 9 13.95C8.75147 13.95 8.55 13.7485 8.55 13.5V9.45H4.5C4.25147 9.45 4.05 9.24853 4.05 9C4.05 8.75147 4.25147 8.55 4.5 8.55H8.55V4.5C8.55 4.25147 8.75147 4.05 9 4.05Z" fill="white"/>
<path fill-rule="evenodd" clip-rule="evenodd" d="M2.88 0C1.28944 0 0 1.28944 0 2.88V15.12C0 16.7106 1.28944 18 2.88 18H15.12C16.7106 18 18 16.7106 18 15.12V2.88C18 1.28944 16.7106 0 15.12 0H2.88ZM4.68 1.8C3.08944 1.8 1.8 3.08944 1.8 4.68V13.32C1.8 14.9106 3.08944 16.2 4.68 16.2H13.32C14.9106 16.2 16.2 14.9106 16.2 13.32V4.68C16.2 3.08944 14.9106 1.8 13.32 1.8H4.68Z" fill="white"/>
</svg>
