<svg width="220" height="248" viewBox="0 0 220 248" fill="none" xmlns="http://www.w3.org/2000/svg">
<path d="M32.2903 16.3117V0.433105H184.177V16.3117L219.5 72.7688V247.433H0.5V72.7688L32.2903 16.3117Z" fill="white"/>
<path fill-rule="evenodd" clip-rule="evenodd" d="M4.03226 243.905H215.968V74.5331L180.645 18.076V3.96168H35.8226V18.076L4.03226 74.5331V243.905ZM141.79 88.6474H25.2258V226.262H141.79V88.6474ZM162.984 35.7188L141.79 67.476H35.8226L53.4839 35.7188H162.984ZM162.364 88.3924C162.505 87.4282 163.402 86.7608 164.367 86.9016L192.868 91.0605C193.833 91.2013 194.501 92.0971 194.36 93.0613C194.219 94.0254 193.322 94.6929 192.357 94.552L163.856 90.3932C162.891 90.2523 162.223 89.3565 162.364 88.3924ZM161.9 97.3652C162.06 96.404 162.97 95.7547 163.932 95.9149L188.025 99.9256C188.987 100.086 189.637 100.995 189.477 101.956C189.316 102.917 188.406 103.566 187.444 103.406L163.352 99.3955C162.389 99.2353 161.74 98.3263 161.9 97.3652ZM161.238 107.1C161.384 106.137 162.284 105.474 163.249 105.621L192.877 110.11C193.842 110.256 194.505 111.156 194.359 112.119C194.212 113.083 193.312 113.745 192.347 113.599L162.719 109.109C161.755 108.963 161.091 108.064 161.238 107.1ZM181.851 129.414C182.827 129.414 183.618 130.204 183.618 131.179V156.636C183.683 156.632 183.752 156.628 183.817 156.625C185.699 155.181 187.728 153.934 189.632 152.797C190.696 152.161 191.729 151.467 192.792 150.743C192.949 150.635 193.108 150.527 193.267 150.418C194.17 149.801 195.102 149.164 196.056 148.557C196.879 148.034 197.971 148.276 198.495 149.098C199.018 149.92 198.776 151.011 197.953 151.534C197.052 152.106 196.176 152.706 195.271 153.324C195.109 153.435 194.947 153.545 194.784 153.657C193.716 154.385 192.608 155.131 191.445 155.825C188.986 157.294 186.576 158.798 184.559 160.581C183.828 161.227 182.712 161.158 182.066 160.428C181.951 160.299 181.859 160.158 181.79 160.01C181.538 159.923 181.272 159.793 181.02 159.595C180.36 159.077 180.085 158.328 180.085 157.59V131.179C180.085 130.204 180.876 129.414 181.851 129.414ZM171.523 130.761C171.997 129.909 173.072 129.602 173.925 130.075C174.957 130.648 175.298 131.756 175.437 132.372C175.602 133.105 175.645 133.928 175.643 134.664C175.638 136.152 175.441 137.656 175.365 138.198C175.033 140.586 174.592 142.876 174.085 145.204C172.864 150.816 169.341 155.819 165.822 159.774C165.174 160.502 164.058 160.568 163.329 159.92C162.6 159.273 162.534 158.158 163.182 157.43C166.559 153.634 169.605 149.182 170.634 144.455C171.129 142.179 171.551 139.982 171.867 137.713C171.938 137.2 172.107 135.891 172.111 134.652C172.113 134.024 172.071 133.504 171.991 133.147C171.975 133.077 171.96 133.023 171.947 132.982C171.298 132.452 171.102 131.519 171.523 130.761ZM176.361 173.51C177.336 173.51 178.127 174.3 178.127 175.275C178.127 175.346 178.127 175.419 178.127 175.491C178.128 177.518 178.129 179.803 177.622 182.066H191.514C192.377 182.066 193.095 182.684 193.25 183.501C193.91 183.756 194.379 184.397 194.379 185.147C194.379 189.923 191.936 194.089 189.861 197.626C189.69 197.918 189.522 198.205 189.357 198.488C186.62 203.201 183.193 207.478 179.197 211.181C179.004 211.36 178.805 211.55 178.6 211.745C177.238 213.04 175.581 214.616 173.406 215.34C172.481 215.648 171.48 215.149 171.172 214.224C170.863 213.3 171.364 212.301 172.289 211.993C173.662 211.535 174.694 210.566 176.11 209.235C176.329 209.03 176.556 208.816 176.795 208.595C180.535 205.128 183.741 201.126 186.302 196.717C186.439 196.482 186.575 196.248 186.711 196.015C188.802 192.43 190.69 189.191 190.837 185.595H176.353C174.466 189.383 171.556 191.737 168.396 194.033C167.607 194.606 166.502 194.431 165.929 193.643C165.355 192.855 165.529 191.752 166.318 191.179C169.766 188.674 172.259 186.534 173.693 182.892C174.585 180.624 174.595 178.121 174.595 175.275C174.595 174.3 175.386 173.51 176.361 173.51Z" fill="black"/>
<path d="M124.129 148.633C124.129 158.377 116.222 166.276 106.468 166.276C96.7137 166.276 88.8064 158.377 88.8064 148.633C88.8064 138.889 96.7137 130.99 106.468 130.99C116.222 130.99 124.129 138.889 124.129 148.633Z" fill="black"/>
<path d="M78.2097 148.633C78.2097 158.377 70.3024 166.276 60.5484 166.276C50.7943 166.276 42.8871 158.377 42.8871 148.633C42.8871 138.889 50.7943 130.99 60.5484 130.99C70.3024 130.99 78.2097 138.889 78.2097 148.633Z" fill="black"/>
<path d="M66.1383 194.214C65.0019 191.52 66.2666 188.416 68.9632 187.281L98.5572 174.822C101.254 173.687 104.361 174.95 105.497 177.644C106.634 180.338 105.369 183.442 102.673 184.577L73.0785 197.036C70.3819 198.171 67.2747 196.908 66.1383 194.214Z" fill="black"/>
</svg>
