<svg width="220" height="248" viewBox="0 0 220 248" fill="none" xmlns="http://www.w3.org/2000/svg">
<path fill-rule="evenodd" clip-rule="evenodd" d="M0.5 247.433H219.5V73.0802L183 14.9625V0.433105H33.35V14.9625L0.5 73.0802V247.433Z" fill="white"/>
<path fill-rule="evenodd" clip-rule="evenodd" d="M5.47727 242.48H214.523V74.6534L179.682 18.7113V4.72575H36.8341V18.7113L5.47727 74.6534V242.48ZM141.357 88.6389H26.3818V224.998H141.357V88.6389ZM162.261 36.1932L141.357 67.6606H36.8341L54.2545 36.1932H162.261ZM160.982 88.2883C161.175 86.9625 162.402 86.0447 163.723 86.2383L191.835 90.3593C193.156 90.5529 194.071 91.7847 193.878 93.1105C193.685 94.4363 192.458 95.3541 191.136 95.1604L163.024 91.0395C161.703 90.8458 160.789 89.6141 160.982 88.2883ZM160.526 97.1657C160.745 95.8441 161.991 94.9512 163.308 95.1715L187.072 99.1456C188.389 99.3658 189.279 100.616 189.059 101.937C188.84 103.259 187.594 104.152 186.277 103.932L162.513 99.9576C161.196 99.7374 160.306 98.4874 160.526 97.1657ZM159.871 106.822C160.071 105.497 161.304 104.586 162.624 104.787L191.848 109.236C193.168 109.437 194.076 110.674 193.876 111.998C193.676 113.323 192.443 114.234 191.123 114.033L161.899 109.584C160.579 109.383 159.671 108.147 159.871 106.822ZM180.872 128.356C182.207 128.356 183.289 129.442 183.289 130.782V154.794C184.918 153.614 186.613 152.573 188.199 151.622C189.23 151.003 190.235 150.325 191.282 149.608L191.748 149.288C192.637 148.677 193.57 148.037 194.52 147.43C195.647 146.711 197.141 147.044 197.858 148.174C198.574 149.305 198.242 150.804 197.116 151.524C196.238 152.084 195.384 152.671 194.491 153.284L194.009 153.615C192.954 154.337 191.847 155.086 190.681 155.786C188.256 157.241 185.928 158.704 183.99 160.424C182.99 161.312 181.462 161.218 180.577 160.214C180.487 160.112 180.407 160.004 180.337 159.892C180.105 159.791 179.865 159.655 179.634 159.473C178.792 158.808 178.454 157.853 178.454 156.953V130.782C178.454 129.442 179.537 128.356 180.872 128.356ZM170.094 130.039C170.742 128.868 172.214 128.446 173.381 129.096C174.671 129.816 175.06 131.178 175.203 131.815C175.383 132.615 175.426 133.488 175.423 134.238C175.418 135.76 175.218 137.288 175.143 137.831C174.813 140.219 174.373 142.507 173.871 144.824C172.63 150.554 169.064 155.618 165.566 159.567C164.679 160.568 163.151 160.658 162.153 159.768C161.155 158.878 161.065 157.345 161.952 156.343C165.256 152.613 168.169 148.307 169.147 143.793C169.633 141.548 170.046 139.39 170.354 137.163C170.424 136.661 170.584 135.401 170.588 134.222C170.59 133.655 170.554 133.217 170.497 132.933C169.753 132.187 169.557 131.008 170.094 130.039ZM175.456 172.05C176.791 172.05 177.874 173.136 177.874 174.476L177.874 174.727C177.875 176.476 177.876 178.486 177.522 180.528H190.403C191.457 180.528 192.354 181.205 192.685 182.151C193.413 182.569 193.903 183.356 193.903 184.258C193.903 189.184 191.399 193.47 189.366 196.949C189.193 197.244 189.024 197.534 188.859 197.818C186.125 202.547 182.703 206.837 178.713 210.552C178.533 210.72 178.343 210.902 178.144 211.092C176.812 212.368 175.057 214.049 172.755 214.819C171.488 215.243 170.119 214.556 169.697 213.285C169.275 212.014 169.959 210.64 171.226 210.216C172.43 209.813 173.329 208.966 174.741 207.636C174.956 207.434 175.183 207.22 175.424 206.995C179.065 203.606 182.185 199.693 184.677 195.383L185.049 194.741C186.996 191.385 188.673 188.492 189.008 185.38H175.861C173.921 189.07 171.028 191.399 167.997 193.611C166.917 194.399 165.405 194.159 164.62 193.076C163.834 191.992 164.073 190.475 165.153 189.687C168.538 187.217 170.857 185.192 172.195 181.776C173.021 179.669 173.039 177.323 173.039 174.476C173.039 173.136 174.121 172.05 175.456 172.05ZM54.2545 141.085C54.2545 146.878 49.5749 151.574 43.8023 151.574C38.0296 151.574 33.35 146.878 33.35 141.085C33.35 135.292 38.0296 130.596 43.8023 130.596C49.5749 130.596 54.2545 135.292 54.2545 141.085ZM123.936 141.085C123.936 146.878 119.257 151.574 113.484 151.574C107.711 151.574 103.032 146.878 103.032 141.085C103.032 135.292 107.711 130.596 113.484 130.596C119.257 130.596 123.936 135.292 123.936 141.085ZM77.5706 183.041C64.105 183.041 52.9268 173.969 50.7705 162.063H104.371C102.214 173.969 91.0363 183.041 77.5706 183.041Z" fill="black"/>
</svg>
